<svg width="40" height="44" viewBox="0 0 40 44" fill="none" xmlns="http://www.w3.org/2000/svg">
<path d="M27.921 19.64L28.848 18.713C29.5855 17.9756 29.9997 16.9754 29.9997 15.9325C29.9997 14.8896 29.5855 13.8894 28.848 13.152C28.1106 12.4146 27.1104 12.0003 26.0675 12.0003C25.0246 12.0003 24.0245 12.4146 23.287 13.152L22.36 14.079L13.838 22.599C13.261 23.177 12.972 23.466 12.724 23.784C12.4314 24.1595 12.1803 24.5655 11.975 24.995C11.802 25.359 11.673 25.747 11.415 26.521L10.321 29.802M27.921 19.64C27.921 19.64 25.952 19.524 24.214 17.786C22.476 16.049 22.361 14.079 22.361 14.079M27.921 19.64L19.4 28.16C18.823 28.737 18.534 29.026 18.216 29.274C17.8405 29.5666 17.4345 29.8177 17.005 30.023C16.641 30.196 16.254 30.325 15.479 30.583L12.198 31.677M12.198 31.677L11.396 31.945C11.2091 32.0077 11.0083 32.017 10.8164 31.9719C10.6245 31.9267 10.4489 31.829 10.3095 31.6895C10.1701 31.5501 10.0723 31.3746 10.0272 31.1826C9.98203 30.9907 9.99133 30.7899 10.054 30.603L10.322 29.801L12.198 31.677Z" stroke="#1E2126" stroke-width="2"/>
</svg>
