<svg width="24" height="24" viewBox="0 0 24 24" fill="none" xmlns="http://www.w3.org/2000/svg">
<g clip-path="url(#clip0_4_1544)">
<rect width="24" height="24" rx="1" fill="white"/>
<path d="M10.1914 3.99023C11.0324 2.75463 12.8232 2.71575 13.7236 3.87402L13.8086 3.99023C14.5046 5.0125 15.6628 5.61339 16.8887 5.60254L17.1348 5.5918C18.6252 5.4789 19.772 6.85506 19.4277 8.28125L19.3896 8.41992C19.0243 9.60158 19.2767 10.8823 20.0498 11.834L20.2119 12.0195C21.2292 13.1144 20.8686 14.8692 19.5391 15.4893L19.4072 15.5449C18.2553 15.996 17.4115 16.9924 17.1494 18.1904L17.1045 18.4326C16.8827 19.9105 15.2864 20.7222 13.9727 20.0693L13.8467 20.002C12.7759 19.3826 11.4711 19.3438 10.3711 19.8857L10.1533 20.002C8.85954 20.7499 7.22942 20.0074 6.9209 18.5732L6.89551 18.4326C6.71212 17.2093 5.9289 16.1647 4.81934 15.6426L4.59277 15.5449C3.2011 14.9997 2.76496 13.2624 3.69434 12.127L3.78809 12.0195C4.63018 11.1134 4.95834 9.85022 4.6748 8.65723L4.61035 8.41992C4.16863 6.99199 5.25463 5.56764 6.72168 5.58594L6.86523 5.5918C8.09874 5.68511 9.29102 5.15416 10.0469 4.18848L10.1914 3.99023Z" stroke="black" stroke-width="1.5"/>
<circle cx="12" cy="12" r="2.25" stroke="black" stroke-width="1.5"/>
</g>
<defs>
<clipPath id="clip0_4_1544">
<rect width="24" height="24" rx="1" fill="white"/>
</clipPath>
</defs>
</svg>
