<svg width="21" height="18" viewBox="0 0 21 18" fill="none" xmlns="http://www.w3.org/2000/svg">
<path fill-rule="evenodd" clip-rule="evenodd" d="M19.5555 2.4H1.77774V16.8H19.5555V2.4ZM1.77774 1.2C1.16409 1.2 0.666626 1.73726 0.666626 2.4V16.8C0.666626 17.4627 1.16409 18 1.77774 18H19.5555C20.1692 18 20.6666 17.4627 20.6666 16.8V2.4C20.6666 1.73726 20.1692 1.2 19.5555 1.2H1.77774Z" fill="black"/>
<path d="M3.99996 0.6C3.99996 0.268629 4.24869 0 4.55552 0C4.86234 0 5.11107 0.268629 5.11107 0.6V3C5.11107 3.33137 4.86234 3.6 4.55552 3.6C4.24869 3.6 3.99996 3.33137 3.99996 3V0.6Z" fill="black"/>
<path d="M17.3333 0.6C17.3333 0.268629 17.582 0 17.8888 0C18.1957 0 18.4444 0.268629 18.4444 0.6V3C18.4444 3.33137 18.1957 3.6 17.8888 3.6C17.582 3.6 17.3333 3.33137 17.3333 3V0.6Z" fill="black"/>
<path fill-rule="evenodd" clip-rule="evenodd" d="M6.49996 6.3H5.38885V7.5H6.49996V6.3ZM5.38885 6C5.23544 6 5.11107 6.13431 5.11107 6.3V7.5C5.11107 7.66569 5.23544 7.8 5.38885 7.8H6.49996C6.65337 7.8 6.77774 7.66569 6.77774 7.5V6.3C6.77774 6.13431 6.65337 6 6.49996 6H5.38885Z" fill="black"/>
<path fill-rule="evenodd" clip-rule="evenodd" d="M6.49996 9.9H5.38885V11.1H6.49996V9.9ZM5.38885 9.6C5.23544 9.6 5.11107 9.73431 5.11107 9.9V11.1C5.11107 11.2657 5.23544 11.4 5.38885 11.4H6.49996C6.65337 11.4 6.77774 11.2657 6.77774 11.1V9.9C6.77774 9.73431 6.65337 9.6 6.49996 9.6H5.38885Z" fill="black"/>
<path fill-rule="evenodd" clip-rule="evenodd" d="M6.49996 13.5H5.38885V14.7H6.49996V13.5ZM5.38885 13.2C5.23544 13.2 5.11107 13.3343 5.11107 13.5V14.7C5.11107 14.8657 5.23544 15 5.38885 15H6.49996C6.65337 15 6.77774 14.8657 6.77774 14.7V13.5C6.77774 13.3343 6.65337 13.2 6.49996 13.2H5.38885Z" fill="black"/>
<path fill-rule="evenodd" clip-rule="evenodd" d="M9.27774 6.3H8.16663V7.5H9.27774V6.3ZM8.16663 6C8.01321 6 7.88885 6.13431 7.88885 6.3V7.5C7.88885 7.66569 8.01321 7.8 8.16663 7.8H9.27774C9.43115 7.8 9.55552 7.66569 9.55552 7.5V6.3C9.55552 6.13431 9.43115 6 9.27774 6H8.16663Z" fill="black"/>
<path fill-rule="evenodd" clip-rule="evenodd" d="M9.27774 9.9H8.16663V11.1H9.27774V9.9ZM8.16663 9.6C8.01321 9.6 7.88885 9.73431 7.88885 9.9V11.1C7.88885 11.2657 8.01321 11.4 8.16663 11.4H9.27774C9.43115 11.4 9.55552 11.2657 9.55552 11.1V9.9C9.55552 9.73431 9.43115 9.6 9.27774 9.6H8.16663Z" fill="black"/>
<path fill-rule="evenodd" clip-rule="evenodd" d="M9.27774 13.5H8.16663V14.7H9.27774V13.5ZM8.16663 13.2C8.01321 13.2 7.88885 13.3343 7.88885 13.5V14.7C7.88885 14.8657 8.01321 15 8.16663 15H9.27774C9.43115 15 9.55552 14.8657 9.55552 14.7V13.5C9.55552 13.3343 9.43115 13.2 9.27774 13.2H8.16663Z" fill="black"/>
<path fill-rule="evenodd" clip-rule="evenodd" d="M12.0555 6.3H10.9444V7.5H12.0555V6.3ZM10.9444 6C10.791 6 10.6666 6.13431 10.6666 6.3V7.5C10.6666 7.66569 10.791 7.8 10.9444 7.8H12.0555C12.2089 7.8 12.3333 7.66569 12.3333 7.5V6.3C12.3333 6.13431 12.2089 6 12.0555 6H10.9444Z" fill="black"/>
<path fill-rule="evenodd" clip-rule="evenodd" d="M12.0555 9.9H10.9444V11.1H12.0555V9.9ZM10.9444 9.6C10.791 9.6 10.6666 9.73431 10.6666 9.9V11.1C10.6666 11.2657 10.791 11.4 10.9444 11.4H12.0555C12.2089 11.4 12.3333 11.2657 12.3333 11.1V9.9C12.3333 9.73431 12.2089 9.6 12.0555 9.6H10.9444Z" fill="black"/>
<path fill-rule="evenodd" clip-rule="evenodd" d="M12.0555 13.5H10.9444V14.7H12.0555V13.5ZM10.9444 13.2C10.791 13.2 10.6666 13.3343 10.6666 13.5V14.7C10.6666 14.8657 10.791 15 10.9444 15H12.0555C12.2089 15 12.3333 14.8657 12.3333 14.7V13.5C12.3333 13.3343 12.2089 13.2 12.0555 13.2H10.9444Z" fill="black"/>
<path fill-rule="evenodd" clip-rule="evenodd" d="M17.6111 6.3H16.5V7.5H17.6111V6.3ZM16.5 6C16.3465 6 16.2222 6.13431 16.2222 6.3V7.5C16.2222 7.66569 16.3465 7.8 16.5 7.8H17.6111C17.7645 7.8 17.8888 7.66569 17.8888 7.5V6.3C17.8888 6.13431 17.7645 6 17.6111 6H16.5Z" fill="black"/>
<path fill-rule="evenodd" clip-rule="evenodd" d="M17.6111 9.9H16.5V11.1H17.6111V9.9ZM16.5 9.6C16.3465 9.6 16.2222 9.73431 16.2222 9.9V11.1C16.2222 11.2657 16.3465 11.4 16.5 11.4H17.6111C17.7645 11.4 17.8888 11.2657 17.8888 11.1V9.9C17.8888 9.73431 17.7645 9.6 17.6111 9.6H16.5Z" fill="black"/>
<path fill-rule="evenodd" clip-rule="evenodd" d="M17.6111 13.5H16.5V14.7H17.6111V13.5ZM16.5 13.2C16.3465 13.2 16.2222 13.3343 16.2222 13.5V14.7C16.2222 14.8657 16.3465 15 16.5 15H17.6111C17.7645 15 17.8888 14.8657 17.8888 14.7V13.5C17.8888 13.3343 17.7645 13.2 17.6111 13.2H16.5Z" fill="black"/>
<path fill-rule="evenodd" clip-rule="evenodd" d="M14.8333 6.3H13.7222V7.5H14.8333V6.3ZM13.7222 6C13.5688 6 13.4444 6.13431 13.4444 6.3V7.5C13.4444 7.66569 13.5688 7.8 13.7222 7.8H14.8333C14.9867 7.8 15.1111 7.66569 15.1111 7.5V6.3C15.1111 6.13431 14.9867 6 14.8333 6H13.7222Z" fill="black"/>
<path fill-rule="evenodd" clip-rule="evenodd" d="M14.8333 9.9H13.7222V11.1H14.8333V9.9ZM13.7222 9.6C13.5688 9.6 13.4444 9.73431 13.4444 9.9V11.1C13.4444 11.2657 13.5688 11.4 13.7222 11.4H14.8333C14.9867 11.4 15.1111 11.2657 15.1111 11.1V9.9C15.1111 9.73431 14.9867 9.6 14.8333 9.6H13.7222Z" fill="black"/>
<path fill-rule="evenodd" clip-rule="evenodd" d="M14.8333 13.5H13.7222V14.7H14.8333V13.5ZM13.7222 13.2C13.5688 13.2 13.4444 13.3343 13.4444 13.5V14.7C13.4444 14.8657 13.5688 15 13.7222 15H14.8333C14.9867 15 15.1111 14.8657 15.1111 14.7V13.5C15.1111 13.3343 14.9867 13.2 14.8333 13.2H13.7222Z" fill="black"/>
<path d="M2.88885 6.6144V6.1752L3.76663 6V7.716H3.29996V6.516L2.88885 6.6144Z" fill="black"/>
<path d="M2.88885 11.3184L3.55774 10.5864C3.60366 10.532 3.64292 10.4848 3.67551 10.4448C3.70959 10.4032 3.73551 10.3632 3.75329 10.3248C3.77107 10.2864 3.77996 10.2456 3.77996 10.2024C3.77996 10.1816 3.777 10.1616 3.77107 10.1424C3.76514 10.1232 3.75552 10.1064 3.74218 10.092C3.72885 10.0776 3.71181 10.0664 3.69107 10.0584C3.67181 10.0488 3.64811 10.044 3.61996 10.044C3.58292 10.044 3.55033 10.0552 3.52218 10.0776C3.49403 10.0984 3.47181 10.1272 3.45551 10.164C3.4407 10.2008 3.43329 10.2416 3.43329 10.2864H2.95551C2.95551 10.1664 2.9807 10.0544 3.03107 9.9504C3.08144 9.8464 3.157 9.7624 3.25774 9.6984C3.35996 9.6328 3.48663 9.6 3.63774 9.6C3.73996 9.6 3.83107 9.616 3.91107 9.648C3.99255 9.6784 4.0607 9.7208 4.11552 9.7752C4.17181 9.828 4.21403 9.888 4.24218 9.9552C4.27181 10.0224 4.28663 10.092 4.28663 10.164C4.28663 10.2568 4.26514 10.3392 4.22218 10.4112C4.17922 10.4816 4.12218 10.5464 4.05107 10.6056L3.77107 10.8384H4.34218V11.3184H2.88885Z" fill="black"/>
<path d="M3.43996 14.112V13.8984C3.47848 13.8984 3.51403 13.8936 3.54663 13.884C3.5807 13.8744 3.60959 13.8608 3.63329 13.8432C3.65848 13.8256 3.67774 13.8056 3.69107 13.7832C3.7044 13.7608 3.71107 13.7376 3.71107 13.7136C3.71107 13.6928 3.70589 13.6744 3.69552 13.6584C3.68514 13.6424 3.66959 13.6304 3.64885 13.6224C3.62959 13.6128 3.60366 13.608 3.57107 13.608C3.5207 13.608 3.47996 13.6232 3.44885 13.6536C3.41774 13.684 3.40218 13.724 3.40218 13.7736H2.95551C2.95551 13.6664 2.9807 13.5696 3.03107 13.4832C3.08144 13.3968 3.15255 13.328 3.2444 13.2768C3.33774 13.2256 3.44737 13.2 3.57329 13.2C3.70663 13.2 3.81922 13.2208 3.91107 13.2624C4.00292 13.304 4.07255 13.3608 4.11996 13.4328C4.16737 13.5048 4.19107 13.5864 4.19107 13.6776C4.19107 13.7848 4.157 13.8704 4.08885 13.9344C4.0207 13.9968 3.92959 14.0424 3.81552 14.0712C3.70292 14.0984 3.57774 14.112 3.43996 14.112ZM3.55107 14.964C3.44589 14.964 3.35181 14.9464 3.26885 14.9112C3.18737 14.876 3.11848 14.828 3.06218 14.7672C3.00589 14.7064 2.96292 14.6384 2.93329 14.5632C2.90366 14.4864 2.88885 14.408 2.88885 14.328H3.36885C3.36885 14.384 3.37848 14.4288 3.39774 14.4624C3.41848 14.496 3.4444 14.52 3.47552 14.5344C3.50811 14.5488 3.5407 14.556 3.57329 14.556C3.60737 14.556 3.63774 14.552 3.6644 14.544C3.69255 14.5344 3.71477 14.5184 3.73107 14.496C3.74737 14.472 3.75552 14.44 3.75552 14.4C3.75552 14.376 3.75033 14.3528 3.73996 14.3304C3.72959 14.3064 3.71255 14.2856 3.68885 14.268C3.66514 14.2488 3.63255 14.2344 3.59107 14.2248C3.55107 14.2136 3.5007 14.208 3.43996 14.208V13.9584C3.55996 13.9584 3.66811 13.968 3.7644 13.9872C3.86218 14.0048 3.94589 14.0336 4.01551 14.0736C4.08663 14.1136 4.1407 14.1648 4.17774 14.2272C4.21626 14.288 4.23551 14.3616 4.23551 14.448C4.23551 14.5472 4.20885 14.636 4.15551 14.7144C4.10366 14.7912 4.02663 14.852 3.9244 14.8968C3.82366 14.9416 3.69922 14.964 3.55107 14.964Z" fill="black"/>
<path d="M8.90663 3.7776L8.79996 4.8H8.52885L8.74218 3.036L9.37996 4.176L10.02 3.036L10.2333 4.8H9.96218L9.85329 3.7776L9.37996 4.644L8.90663 3.7776Z" fill="black"/>
<path d="M10.6195 4.4568C10.6195 4.4936 10.6277 4.5256 10.644 4.5528C10.6602 4.5784 10.6825 4.5976 10.7106 4.6104C10.7402 4.6232 10.7736 4.6296 10.8106 4.6296C10.858 4.6296 10.901 4.6192 10.9395 4.5984C10.9795 4.5776 11.0114 4.5472 11.0351 4.5072C11.0602 4.4656 11.0728 4.4176 11.0728 4.3632L11.1084 4.5072C11.1084 4.5776 11.0891 4.6368 11.0506 4.6848C11.0136 4.7312 10.9662 4.7664 10.9084 4.7904C10.8521 4.8128 10.7943 4.824 10.7351 4.824C10.6714 4.824 10.6121 4.8104 10.5573 4.7832C10.5025 4.756 10.4588 4.716 10.4262 4.6632C10.3936 4.6104 10.3773 4.5464 10.3773 4.4712C10.3773 4.364 10.4121 4.2792 10.4817 4.2168C10.5514 4.1528 10.6499 4.1208 10.7773 4.1208C10.8454 4.1208 10.904 4.1288 10.9528 4.1448C11.0032 4.1608 11.0447 4.18 11.0773 4.2024C11.1099 4.2232 11.1328 4.2424 11.1462 4.26V4.392C11.1002 4.3568 11.0514 4.3312 10.9995 4.3152C10.9477 4.2992 10.8928 4.2912 10.8351 4.2912C10.7847 4.2912 10.744 4.2984 10.7128 4.3128C10.6817 4.3256 10.658 4.344 10.6417 4.368C10.6269 4.392 10.6195 4.4216 10.6195 4.4568ZM10.544 3.984L10.4462 3.8016C10.4921 3.7712 10.5514 3.7416 10.624 3.7128C10.698 3.684 10.7825 3.6696 10.8773 3.6696C10.9617 3.6696 11.0358 3.6832 11.0995 3.7104C11.1647 3.7376 11.2158 3.7768 11.2528 3.828C11.2899 3.8776 11.3084 3.9392 11.3084 4.0128V4.8H11.0728V4.0632C11.0728 4.028 11.0669 3.9992 11.0551 3.9768C11.0447 3.9544 11.0299 3.936 11.0106 3.9216C10.9914 3.9072 10.9684 3.8968 10.9417 3.8904C10.9151 3.884 10.8862 3.8808 10.8551 3.8808C10.8077 3.8808 10.7625 3.8872 10.7195 3.9C10.678 3.9112 10.6417 3.9256 10.6106 3.9432C10.581 3.9592 10.5588 3.9728 10.544 3.984Z" fill="black"/>
<path d="M12.4818 3.696L11.8151 5.328H11.5596L11.8262 4.6704L11.4151 3.696H11.6907L12.0173 4.5696L11.904 4.5624L12.224 3.696H12.4818Z" fill="black"/>
</svg>
